<svg xmlns="http://www.w3.org/2000/svg" width="32" height="32" viewBox="0 0 24 24" fill="none" stroke="white" stroke-width="2" stroke-linecap="round" stroke-linejoin="round">
  <rect width="24" height="24" rx="6" fill="#22c55e"/>
  <path d="M6 13.87A4 4 0 0 1 7.41 6a5.11 5.11 0 0 1 1.05-1.54 5 5 0 0 1 7.08 0A5.11 5.11 0 0 1 16.59 6 4 4 0 0 1 18 13.87V17a2 2 0 0 1-2 2H8a2 2 0 0 1-2-2Z" stroke="white" fill="none" stroke-width="1.5"/>
  <line x1="6" x2="18" y1="17" y2="17" stroke="white" stroke-width="1.5"/>
</svg>
